<svg width="20" height="20" viewBox="0 0 20 20" fill="none" xmlns="http://www.w3.org/2000/svg">
<g clip-path="url(#clip0_22_228)">
<path d="M15.1454 5.54545L14.7999 7.58181C14.2363 7.41817 13.709 7.41817 13.709 7.41817C13.1818 7.41817 12.709 7.59999 12.709 8.12726V9.67272H14.8727L14.7272 11.6364H12.709V18.4545H10.1636V11.6364H8.81812V9.67272H10.1636V8.34545C10.1636 7.76363 10.1636 6.87272 10.5999 6.30908C11.0363 5.72726 11.6545 5.30908 12.6908 5.30908C12.6908 5.30908 14.3999 5.30908 15.1272 5.56363" fill="currentColor"/>
<path d="M6.03637 1.69092C5.58183 1.69092 1.69092 1.85455 1.69092 6.03637V14.6182C1.69092 15.0546 1.83637 18.9636 6.03637 18.9636H14.6182C15.0546 18.9636 18.9636 18.8182 18.9636 14.6182V6.03637C18.9636 5.60001 18.8182 1.69092 14.6182 1.69092H6.03637Z" stroke="currentColor" stroke-width="1.5"/>
</g>
<defs>
<clipPath id="clip0_22_228">
<rect width="20" height="20" fill="white"/>
</clipPath>
</defs>
</svg>
