<svg width="20" height="20" viewBox="0 0 20 20" fill="none" xmlns="http://www.w3.org/2000/svg">
<g clip-path="url(#clip0_22_224)">
<path d="M6.03637 1.69092C5.58183 1.69092 1.69092 1.85455 1.69092 6.03637V14.6182C1.69092 15.0546 1.83637 18.9636 6.03637 18.9636H14.6182C15.0546 18.9636 18.9636 18.8182 18.9636 14.6182V6.03637C18.9636 5.60001 18.8182 1.69092 14.6182 1.69092H6.03637Z" stroke="currentColor" stroke-width="1.5"/>
<path d="M10.3274 14.3637C12.5637 14.3637 14.3637 12.5637 14.3637 10.3273C14.3637 8.09092 12.5637 6.29092 10.3274 6.29092C8.09102 6.29092 6.29102 8.09092 6.29102 10.3273C6.29102 12.5637 8.09102 14.3637 10.3274 14.3637Z" stroke="currentColor" stroke-width="1.5"/>
<path d="M15.3454 6.40001C15.9454 6.40001 16.4545 5.9091 16.4545 5.29091C16.4545 4.67273 15.9636 4.18182 15.3454 4.18182C14.7272 4.18182 14.2363 4.67273 14.2363 5.29091C14.2363 5.9091 14.7272 6.40001 15.3454 6.40001Z" fill="currentColor"/>
</g>
<defs>
<clipPath id="clip0_22_224">
<rect width="20" height="20" fill="white"/>
</clipPath>
</defs>
</svg>
