<?xml version="1.0" encoding="UTF-8" standalone="no"?>
<svg
   width="76"
   zoomAndPan="magnify"
   viewBox="0 0 57 56.999997"
   height="76"
   preserveAspectRatio="xMidYMid"
   version="1.0"
   id="svg140"
   sodipodi:docname="Logo - Transparent.svg"
   inkscape:version="1.2.2 (732a01da63, 2022-12-09)"
   xmlns:inkscape="http://www.inkscape.org/namespaces/inkscape"
   xmlns:sodipodi="http://sodipodi.sourceforge.net/DTD/sodipodi-0.dtd"
   xmlns="http://www.w3.org/2000/svg"
   xmlns:svg="http://www.w3.org/2000/svg">
  <sodipodi:namedview
     id="namedview142"
     pagecolor="#ffffff"
     bordercolor="#000000"
     borderopacity="0.25"
     inkscape:showpageshadow="2"
     inkscape:pageopacity="0.0"
     inkscape:pagecheckerboard="0"
     inkscape:deskcolor="#d1d1d1"
     showgrid="false"
     inkscape:zoom="4.068323"
     inkscape:cx="152.02824"
     inkscape:cy="38.222137"
     inkscape:window-width="1920"
     inkscape:window-height="991"
     inkscape:window-x="-9"
     inkscape:window-y="-9"
     inkscape:window-maximized="1"
     inkscape:current-layer="svg140" />
  <defs
     id="defs78">
    <g
       id="g73" />
    <clipPath
       id="245c8f7a53">
      <path
         d="M 0.648438,17.347656 H 57.53125 V 39.800781 H 0.648438 Z m 0,0"
         clip-rule="nonzero"
         id="path75" />
    </clipPath>
  </defs>
  <g
     clip-path="url(#245c8f7a53)"
     id="g82">
    <path
       fill="#ffffff"
       d="m 29.144531,21.410156 c -0.675781,0 -1.226562,0.546875 -1.226562,1.222656 0,0.675782 0.550781,1.222657 1.226562,1.222657 0.675781,0 1.222657,-0.546875 1.222657,-1.222657 0,-0.675781 -0.546876,-1.222656 -1.222657,-1.222656 z M 56.996094,17.34375 H 44.132812 c -0.335937,0 -0.609374,0.273438 -0.609374,0.613281 0,0.335938 0.273437,0.609375 0.609374,0.609375 h 5.820313 v 3.457032 H 39.363281 c -0.953125,0 -1.726562,-0.777344 -1.726562,-1.730469 0,-1.625 -1.324219,-2.949219 -2.949219,-2.949219 H 23.855469 c -1.625,0 -2.949219,1.324219 -2.949219,2.949219 0,0.953125 -0.773438,1.730469 -1.726562,1.730469 H 8.335938 v -3.457032 h 5.820312 c 0.335938,0 0.609375,-0.273437 0.609375,-0.609375 0,-0.339843 -0.273437,-0.613281 -0.609375,-0.613281 H 1.292969 c -0.335938,0 -0.609375,0.273438 -0.609375,0.613281 0,0.335938 0.273437,0.609375 0.609375,0.609375 h 5.820312 v 6.875 c 0,0.335938 0.273438,0.609375 0.609375,0.609375 h 14.890625 c 0.320313,0 0.582031,0.261719 0.582031,0.585938 0,0.285156 0.06641,0.550781 0.1875,0.792969 l -5.753906,11.136718 h -0.390625 c -0.335937,0 -0.609375,0.273438 -0.609375,0.609375 0,0.335938 0.273438,0.609375 0.609375,0.609375 H 18 c 0,0 0,0 0.0039,0 h 1.21875 c 0.339844,0 0.609375,-0.273437 0.609375,-0.609375 0,-0.335937 -0.269531,-0.609375 -0.609375,-0.609375 H 19.0039 l 5.300782,-10.265625 c 0.214843,0.08984 0.449218,0.140625 0.695312,0.140625 h 8.542969 c 0.164062,0 0.324219,-0.02344 0.476562,-0.06641 l 5.261725,10.19141 H 39.0625 c -0.335938,0 -0.609375,0.273438 -0.609375,0.609375 0,0.335938 0.273437,0.609375 0.609375,0.609375 h 1.222656 c 0,0 0.0039,0 0.0039,0 h 0.757813 c 0.339844,0 0.613281,-0.273437 0.613281,-0.609375 0,-0.335937 -0.273437,-0.609375 -0.613281,-0.609375 H 40.65625 L 35.023438,27.664062 c 0.203124,-0.292968 0.324218,-0.648437 0.324218,-1.027343 0,-0.324219 0.261719,-0.585938 0.582032,-0.585938 H 50.5625 c 0.339844,0 0.613281,-0.273437 0.613281,-0.609375 v -6.875 h 5.820313 c 0.335937,0 0.609375,-0.273437 0.609375,-0.609375 0,-0.339843 -0.273438,-0.613281 -0.609375,-0.613281 z m -27.851563,7.734375 c -1.347656,0 -2.445312,-1.097656 -2.445312,-2.445313 0,-1.347656 1.097656,-2.445312 2.445312,-2.445312 1.347657,0 2.445313,1.097656 2.445313,2.445312 0,1.347657 -1.097656,2.445313 -2.445313,2.445313 z m 0,0"
       fill-opacity="1"
       fill-rule="nonzero"
       id="path80" />
  </g>
</svg>
